<svg width="184.000000" height="60.000000" viewBox="0 0 184 60" fill="none" xmlns="http://www.w3.org/2000/svg" xmlns:xlink="http://www.w3.org/1999/xlink">
	<desc>
			Created with Pixso.
	</desc>
	<defs/>
	<path d="M5.74 53.9L4.58 54.01Q4.6 54.64 4.82 55.18Q4.93 55.44 5.09 55.68Q5.26 55.94 5.48 56.15Q5.87 56.55 6.43 56.79Q7.28 57.15 8.55 57.15Q9.54 57.15 10.34 56.79Q11.02 56.48 11.42 55.96Q11.5 55.87 11.56 55.77Q11.84 55.33 11.94 54.86Q11.99 54.62 11.99 54.37Q11.99 53.82 11.78 53.37Q11.71 53.2 11.6 53.04Q11.21 52.47 10.4 52.09Q9.84 51.84 8.34 51.5Q6.84 51.16 6.48 50.84Q6.32 50.69 6.23 50.51Q6.12 50.29 6.12 50.01Q6.12 49.82 6.18 49.64Q6.29 49.3 6.63 49.03Q7.14 48.62 8.26 48.62Q9.33 48.62 9.88 49.07Q9.96 49.13 10.03 49.2Q10.44 49.64 10.53 50.4L11.71 50.31Q11.69 49.74 11.47 49.26Q11.38 49.04 11.25 48.84Q11.16 48.71 11.06 48.59Q10.66 48.13 10.03 47.86Q9.24 47.53 8.21 47.53Q7.27 47.53 6.5 47.85Q5.85 48.12 5.46 48.6Q5.39 48.69 5.33 48.78Q5.09 49.15 4.99 49.57Q4.93 49.82 4.93 50.1Q4.93 50.51 5.07 50.88Q5.15 51.07 5.26 51.25Q5.59 51.77 6.25 52.12Q6.77 52.39 8.05 52.7Q9.33 53.01 9.71 53.15Q10.29 53.38 10.55 53.7Q10.64 53.82 10.7 53.96Q10.8 54.19 10.8 54.47Q10.8 54.64 10.76 54.79Q10.7 55.04 10.54 55.27Q10.27 55.63 9.73 55.84Q9.19 56.05 8.49 56.05Q7.7 56.05 7.06 55.77Q6.43 55.5 6.12 55.05Q5.82 54.6 5.74 53.9ZM60.33 51.14L60.33 57L61.46 57L61.46 51.14L62.78 51.14L62.78 50.25L61.46 50.25L61.46 49.63Q61.46 49.02 61.68 48.8Q61.89 48.58 62.42 48.58Q62.73 48.58 63.09 48.64L63.26 47.64Q62.68 47.53 62.19 47.53Q61.44 47.53 61.03 47.81Q60.76 47.98 60.6 48.22Q60.51 48.36 60.45 48.53Q60.33 48.86 60.33 49.54L60.33 50.25L59.32 50.25L59.32 51.14L60.33 51.14ZM14.82 47.69L14.82 57L15.97 57L15.97 53.31Q15.97 52.51 16.16 52.06Q16.22 51.91 16.32 51.77Q16.5 51.52 16.79 51.35Q17.05 51.2 17.33 51.13Q17.54 51.09 17.75 51.09Q18.32 51.09 18.68 51.36Q18.74 51.42 18.8 51.48Q19.17 51.87 19.17 52.72L19.17 57L20.31 57L20.31 52.72Q20.31 51.73 20.08 51.21Q20.01 51.06 19.91 50.93Q19.68 50.61 19.29 50.4Q18.73 50.1 17.98 50.1Q17.38 50.1 16.88 50.33Q16.37 50.56 15.97 51.03L15.97 47.69L14.82 47.69ZM31.86 47.69L31.86 57L33 57L33 47.69L31.86 47.69ZM118.73 47.69L118.73 49L119.87 49L119.87 47.69L118.73 47.69ZM136.45 47.69L136.45 57L139.99 57Q140.88 57 141.5 56.84Q142.11 56.68 142.51 56.38Q142.92 56.07 143.2 55.51Q143.28 55.35 143.33 55.18Q143.47 54.76 143.47 54.3Q143.47 53.73 143.25 53.27Q143.16 53.07 143.02 52.89Q142.97 52.82 142.91 52.76Q142.47 52.26 141.72 52.04Q142.37 51.72 142.7 51.19L142.7 51.19Q142.9 50.87 142.98 50.51Q143.02 50.3 143.02 50.07Q143.02 49.91 143 49.75Q142.93 49.28 142.66 48.84Q142.49 48.58 142.27 48.37Q142 48.13 141.65 47.97Q141 47.69 139.94 47.69L136.45 47.69ZM38.73 56.98L38.57 55.97Q38.25 56.02 38.06 56.02Q37.81 56.02 37.67 55.93Q37.59 55.88 37.53 55.81Q37.5 55.76 37.48 55.71Q37.42 55.57 37.42 55.08L37.42 51.14L38.57 51.14L38.57 50.25L37.42 50.25L37.42 47.9L36.28 48.58L36.28 50.25L35.44 50.25L35.44 51.14L36.28 51.14L36.28 55.02Q36.28 56.05 36.42 56.37Q36.45 56.43 36.48 56.49Q36.63 56.73 36.9 56.89Q37.25 57.08 37.87 57.08Q38.25 57.08 38.73 56.98ZM103.76 56.98L103.59 55.97Q103.28 56.02 103.09 56.02Q102.84 56.02 102.7 55.93Q102.61 55.88 102.56 55.81Q102.53 55.76 102.5 55.71Q102.44 55.57 102.44 55.08L102.44 51.14L103.59 51.14L103.59 50.25L102.44 50.25L102.44 47.9L101.31 48.58L101.31 50.25L100.47 50.25L100.47 51.14L101.31 51.14L101.31 55.02Q101.31 56.05 101.45 56.37Q101.47 56.43 101.51 56.49Q101.65 56.73 101.93 56.89Q102.27 57.08 102.89 57.08Q103.27 57.08 103.76 56.98ZM165.31 56.98L165.15 55.97Q164.83 56.02 164.64 56.02Q164.39 56.02 164.25 55.93Q164.17 55.88 164.11 55.81Q164.08 55.76 164.06 55.71Q164 55.57 164 55.08L164 51.14L165.15 51.14L165.15 50.25L164 50.25L164 47.9L162.86 48.58L162.86 50.25L162.02 50.25L162.02 51.14L162.86 51.14L162.86 55.02Q162.86 56.05 163 56.37Q163.03 56.43 163.06 56.49Q163.21 56.73 163.48 56.89Q163.83 57.08 164.45 57.08Q164.83 57.08 165.31 56.98ZM139.69 51.6L137.68 51.6L137.68 48.79L139.54 48.79Q140.54 48.79 140.95 48.92Q141.19 48.99 141.37 49.14Q141.49 49.25 141.59 49.4Q141.62 49.46 141.65 49.52Q141.81 49.83 141.81 50.22Q141.81 50.69 141.59 51Q141.58 51.02 141.57 51.03Q141.56 51.04 141.55 51.06Q141.31 51.36 140.86 51.49Q140.51 51.6 139.69 51.6ZM29.15 54.97L27.97 54.82Q27.71 55.55 27.26 55.88Q27.18 55.94 27.09 55.99Q26.7 56.21 26.19 56.21Q25.72 56.21 25.34 56.03Q25.03 55.88 24.78 55.62Q24.22 55.03 24.15 53.92L29.18 53.92Q29.19 53.71 29.19 53.61Q29.19 52 28.39 51.09Q28.36 51.05 28.33 51.02Q28 50.67 27.59 50.45Q26.95 50.1 26.12 50.1Q25.24 50.1 24.57 50.47Q24.17 50.69 23.85 51.04Q23.81 51.08 23.78 51.11Q22.97 52.05 22.97 53.68Q22.97 55.22 23.73 56.12Q23.78 56.18 23.84 56.24Q24.05 56.46 24.31 56.63Q25.07 57.15 26.18 57.15Q27.34 57.15 28.08 56.6Q28.1 56.59 28.11 56.58Q28.28 56.45 28.42 56.31Q28.93 55.78 29.15 54.97ZM46.78 54.97L45.6 54.82Q45.34 55.55 44.89 55.88Q44.81 55.94 44.72 55.99Q44.33 56.21 43.82 56.21Q43.35 56.21 42.97 56.03Q42.66 55.88 42.41 55.62Q41.85 55.03 41.78 53.92L46.81 53.92Q46.82 53.71 46.82 53.61Q46.82 52 46.02 51.09Q45.99 51.05 45.96 51.02Q45.63 50.67 45.22 50.45Q44.58 50.1 43.75 50.1Q42.87 50.1 42.2 50.47Q41.8 50.69 41.48 51.04Q41.44 51.08 41.41 51.11Q40.6 52.05 40.6 53.68Q40.6 55.22 41.36 56.12Q41.41 56.18 41.47 56.24Q41.68 56.46 41.94 56.63Q42.7 57.15 43.81 57.15Q44.97 57.15 45.71 56.6Q45.73 56.59 45.74 56.58Q45.91 56.45 46.05 56.31Q46.56 55.78 46.78 54.97ZM49.5 50.25L49.5 57L50.64 57L50.64 53.47Q50.64 52.74 50.83 52.13Q50.94 51.81 51.15 51.6Q51.2 51.55 51.26 51.51Q51.41 51.4 51.57 51.34Q51.74 51.28 51.93 51.28Q52.35 51.28 52.77 51.53L53.16 50.47Q52.57 50.1 51.99 50.1Q51.8 50.1 51.63 50.15Q51.43 50.21 51.26 50.33Q50.92 50.56 50.53 51.28L50.53 50.25L49.5 50.25ZM65.38 51.05Q64.54 51.94 64.54 53.62Q64.54 55.29 65.37 56.19Q65.39 56.22 65.41 56.24Q65.69 56.52 66.01 56.72Q66.73 57.15 67.7 57.15Q68.26 57.15 68.77 56.98Q69.06 56.88 69.33 56.73Q69.73 56.51 70.03 56.19Q70.29 55.92 70.47 55.58Q70.86 54.83 70.86 53.53Q70.86 52.11 70.17 51.23Q70.08 51.12 69.97 51.01Q69.66 50.69 69.29 50.49Q68.6 50.1 67.7 50.1Q66.86 50.1 66.19 50.44Q65.86 50.61 65.58 50.85Q65.47 50.94 65.38 51.05ZM73.48 50.25L73.48 57L74.63 57L74.63 53.47Q74.63 52.74 74.82 52.13Q74.92 51.81 75.13 51.6Q75.18 51.55 75.24 51.51Q75.39 51.4 75.56 51.34Q75.73 51.28 75.91 51.28Q76.33 51.28 76.75 51.53L77.15 50.47Q76.55 50.1 75.97 50.1Q75.78 50.1 75.61 50.15Q75.41 50.21 75.24 50.33Q74.9 50.56 74.51 51.28L74.51 50.25L73.48 50.25ZM84.04 50.25L84.04 59.58L85.18 59.58L85.18 56.3Q85.47 56.66 85.92 56.91Q85.96 56.92 85.99 56.94Q86.42 57.15 86.95 57.15Q87.17 57.15 87.39 57.11Q87.93 57.02 88.44 56.71Q88.62 56.59 88.78 56.46Q89.24 56.05 89.52 55.44Q89.89 54.61 89.89 53.57Q89.89 52.61 89.55 51.8Q89.29 51.17 88.83 50.76Q88.7 50.64 88.56 50.55Q88.38 50.43 88.19 50.34Q87.67 50.1 87.03 50.1Q86.37 50.1 85.91 50.36Q85.45 50.62 85.08 51.13L85.08 50.25L84.04 50.25ZM98.36 54.97L97.18 54.82Q96.92 55.55 96.48 55.88Q96.39 55.94 96.3 55.99Q95.91 56.21 95.4 56.21Q94.94 56.21 94.56 56.03Q94.25 55.88 93.99 55.62Q93.43 55.03 93.37 53.92L98.39 53.92Q98.4 53.71 98.4 53.61Q98.4 52 97.6 51.09Q97.57 51.05 97.54 51.02Q97.21 50.67 96.81 50.45Q96.16 50.1 95.33 50.1Q94.45 50.1 93.78 50.47Q93.39 50.69 93.06 51.04Q93.03 51.08 93 51.11Q92.19 52.05 92.19 53.68Q92.19 55.22 92.94 56.12Q93 56.18 93.05 56.24Q93.27 56.46 93.52 56.63Q94.29 57.15 95.4 57.15Q96.55 57.15 97.3 56.6Q97.31 56.59 97.33 56.58Q97.49 56.45 97.63 56.31Q98.14 55.78 98.36 54.97ZM106.68 54.81L105.55 54.98Q105.72 55.94 106.29 56.48Q106.36 56.54 106.43 56.6Q107.12 57.15 108.43 57.15Q109.23 57.15 109.86 56.87Q110.41 56.63 110.73 56.21Q110.78 56.15 110.82 56.09Q111.04 55.75 111.11 55.38Q111.15 55.2 111.15 55.01Q111.15 54.43 110.88 54.04Q110.82 53.95 110.74 53.87Q110.5 53.6 110.13 53.44Q109.65 53.23 108.43 52.91Q107.6 52.68 107.42 52.62Q107.13 52.49 106.99 52.31Q106.91 52.21 106.88 52.11Q106.85 52.01 106.85 51.91Q106.85 51.82 106.87 51.74Q106.93 51.49 107.18 51.3Q107.52 51.04 108.31 51.04Q108.97 51.04 109.34 51.33Q109.44 51.42 109.52 51.52Q109.72 51.77 109.78 52.15L110.9 51.99Q110.79 51.34 110.5 50.95Q110.22 50.56 109.62 50.33Q109.02 50.1 108.22 50.1Q107.7 50.1 107.24 50.24Q106.78 50.37 106.51 50.57Q106.33 50.7 106.19 50.86Q106.05 51.02 105.95 51.21Q105.87 51.35 105.83 51.5Q105.74 51.76 105.74 52.04Q105.74 52.34 105.83 52.61Q105.89 52.79 105.99 52.95Q106.03 53.01 106.08 53.07Q106.32 53.39 106.73 53.59Q107.21 53.82 108.47 54.14Q109.4 54.37 109.64 54.53Q109.82 54.65 109.91 54.82Q109.98 54.96 109.98 55.14Q109.98 55.27 109.94 55.39Q109.86 55.66 109.6 55.89Q109.21 56.21 108.43 56.21Q107.65 56.21 107.21 55.85Q107.15 55.79 107.09 55.73Q106.76 55.38 106.68 54.81ZM122.91 50.25L122.91 57L124.05 57L124.05 53.31Q124.05 52.02 124.58 51.56Q124.81 51.36 125.07 51.24Q125.42 51.09 125.84 51.09Q126.28 51.09 126.61 51.28Q126.62 51.29 126.64 51.3Q126.86 51.44 127 51.63Q127.07 51.73 127.11 51.85Q127.24 52.2 127.24 52.89L127.24 57L128.39 57L128.39 52.85Q128.39 52.06 128.32 51.74Q128.22 51.25 127.97 50.89Q127.71 50.54 127.2 50.32Q126.69 50.1 126.08 50.1Q125.3 50.1 124.73 50.44Q124.27 50.72 123.94 51.21L123.94 50.25L122.91 50.25ZM146.73 51.05Q145.9 51.94 145.9 53.62Q145.9 55.29 146.72 56.19Q146.75 56.22 146.77 56.24Q147.04 56.52 147.37 56.72Q148.08 57.15 149.06 57.15Q149.62 57.15 150.13 56.98Q150.42 56.88 150.69 56.73Q151.09 56.51 151.38 56.19Q151.64 55.92 151.82 55.58Q152.21 54.83 152.21 53.53Q152.21 52.11 151.52 51.23Q151.43 51.12 151.33 51.01Q151.02 50.69 150.65 50.49Q149.96 50.1 149.06 50.1Q148.21 50.1 147.54 50.44Q147.22 50.61 146.94 50.85Q146.83 50.94 146.73 51.05ZM155.52 54.81L154.39 54.98Q154.56 55.94 155.13 56.48Q155.2 56.54 155.27 56.6Q155.96 57.15 157.28 57.15Q158.07 57.15 158.7 56.87Q159.25 56.63 159.57 56.21Q159.62 56.15 159.66 56.09Q159.88 55.75 159.96 55.38Q159.99 55.2 159.99 55.01Q159.99 54.43 159.72 54.04Q159.66 53.95 159.59 53.87Q159.34 53.6 158.97 53.44Q158.49 53.23 157.28 52.91Q156.44 52.68 156.27 52.62Q155.97 52.49 155.83 52.31Q155.75 52.21 155.72 52.11Q155.69 52.01 155.69 51.91Q155.69 51.82 155.71 51.74Q155.78 51.49 156.03 51.3Q156.36 51.04 157.15 51.04Q157.82 51.04 158.18 51.33Q158.28 51.42 158.37 51.52Q158.57 51.77 158.62 52.15L159.74 51.99Q159.63 51.34 159.35 50.95Q159.06 50.56 158.46 50.33Q157.86 50.1 157.07 50.1Q156.54 50.1 156.08 50.24Q155.62 50.37 155.35 50.57Q155.17 50.7 155.03 50.86Q154.89 51.02 154.79 51.21Q154.72 51.35 154.67 51.5Q154.58 51.76 154.58 52.04Q154.58 52.34 154.68 52.61Q154.74 52.79 154.84 52.95Q154.88 53.01 154.92 53.07Q155.16 53.39 155.57 53.59Q156.06 53.82 157.31 54.14Q158.25 54.37 158.48 54.53Q158.67 54.65 158.75 54.82Q158.82 54.96 158.82 55.14Q158.82 55.27 158.78 55.39Q158.7 55.66 158.44 55.89Q158.06 56.21 157.27 56.21Q156.49 56.21 156.05 55.85Q155.99 55.79 155.93 55.73Q155.6 55.38 155.52 54.81ZM167.98 51.05Q167.14 51.94 167.14 53.62Q167.14 55.29 167.97 56.19Q167.99 56.22 168.01 56.24Q168.28 56.52 168.61 56.72Q169.33 57.15 170.3 57.15Q170.86 57.15 171.37 56.98Q171.66 56.88 171.93 56.73Q172.33 56.51 172.63 56.19Q172.88 55.92 173.06 55.58Q173.45 54.83 173.45 53.53Q173.45 52.11 172.76 51.23Q172.67 51.12 172.57 51.01Q172.26 50.69 171.89 50.49Q171.2 50.1 170.3 50.1Q169.46 50.1 168.79 50.44Q168.46 50.61 168.18 50.85Q168.07 50.94 167.98 51.05ZM176.09 50.25L176.09 57L177.24 57L177.24 53.31Q177.24 52.02 177.77 51.56Q177.99 51.36 178.25 51.24Q178.61 51.09 179.03 51.09Q179.46 51.09 179.79 51.28Q179.81 51.29 179.82 51.3Q180.05 51.44 180.18 51.63Q180.25 51.73 180.3 51.85Q180.43 52.2 180.43 52.89L180.43 57L181.57 57L181.57 52.85Q181.57 52.06 181.51 51.74Q181.41 51.25 181.15 50.89Q180.9 50.54 180.39 50.32Q179.88 50.1 179.27 50.1Q178.49 50.1 177.91 50.44Q177.45 50.72 177.12 51.21L177.12 50.25L176.09 50.25ZM118.73 50.25L118.73 57L119.87 57L119.87 50.25L118.73 50.25ZM85.6 55.59Q85.07 54.96 85.07 53.66Q85.07 52.36 85.63 51.68Q86.06 51.17 86.57 51.04Q86.74 51 86.92 51Q87.17 51 87.39 51.07Q87.84 51.21 88.19 51.64Q88.72 52.28 88.72 53.57Q88.72 54.92 88.18 55.56Q87.83 55.98 87.39 56.12Q87.15 56.21 86.87 56.21Q86.59 56.21 86.33 56.12Q85.92 55.97 85.6 55.59ZM27.98 52.98L24.22 52.98Q24.26 52.27 24.62 51.79Q24.7 51.67 24.81 51.57Q25.04 51.35 25.3 51.22Q25.68 51.04 26.13 51.04Q26.59 51.04 26.95 51.22Q27.29 51.38 27.55 51.7Q27.9 52.13 27.98 52.98ZM45.61 52.98L41.85 52.98Q41.89 52.27 42.25 51.79Q42.33 51.67 42.44 51.57Q42.67 51.35 42.93 51.22Q43.31 51.04 43.76 51.04Q44.22 51.04 44.58 51.22Q44.92 51.38 45.18 51.7Q45.53 52.13 45.61 52.98ZM97.19 52.98L93.43 52.98Q93.48 52.27 93.83 51.79Q93.92 51.67 94.02 51.57Q94.25 51.35 94.52 51.22Q94.89 51.04 95.35 51.04Q95.8 51.04 96.16 51.22Q96.5 51.38 96.76 51.7Q97.12 52.13 97.19 52.98ZM66.28 55.56Q65.71 54.92 65.71 53.62Q65.71 52.33 66.28 51.69Q66.56 51.37 66.91 51.21Q67.27 51.05 67.7 51.05Q68.1 51.05 68.44 51.19Q68.82 51.35 69.11 51.69Q69.68 52.34 69.68 53.59Q69.68 54.91 69.12 55.56Q68.83 55.89 68.46 56.06Q68.11 56.21 67.7 56.21Q67.27 56.21 66.92 56.05Q66.56 55.89 66.28 55.56ZM147.64 55.56Q147.07 54.92 147.07 53.62Q147.07 52.33 147.64 51.69Q147.92 51.37 148.27 51.21Q148.63 51.05 149.06 51.05Q149.46 51.05 149.8 51.19Q150.17 51.35 150.47 51.69Q151.04 52.34 151.04 53.59Q151.04 54.91 150.47 55.56Q150.18 55.89 149.82 56.06Q149.47 56.21 149.06 56.21Q148.63 56.21 148.27 56.05Q147.92 55.89 147.64 55.56ZM168.88 55.56Q168.31 54.92 168.31 53.62Q168.31 52.33 168.88 51.69Q169.16 51.37 169.51 51.21Q169.87 51.05 170.3 51.05Q170.7 51.05 171.04 51.19Q171.41 51.35 171.71 51.69Q172.28 52.34 172.28 53.59Q172.28 54.91 171.71 55.56Q171.42 55.89 171.06 56.06Q170.71 56.21 170.3 56.21Q169.87 56.21 169.52 56.05Q169.16 55.89 168.88 55.56ZM139.99 55.9L137.68 55.9L137.68 52.7L139.83 52.7Q140.72 52.7 141.19 52.85Q141.5 52.95 141.72 53.15Q141.84 53.26 141.93 53.39Q141.99 53.47 142.03 53.56Q142.2 53.89 142.2 54.3Q142.2 54.74 142.01 55.08Q141.83 55.42 141.55 55.6L141.54 55.6Q141.26 55.78 140.83 55.85Q140.59 55.9 139.99 55.9Z" fill="#FFFFFF" fill-opacity="1.000000" fill-rule="evenodd"/>
	<path d="M9.31 29.31Q10.28 29.51 11.29 29.51Q14.21 29.51 16.36 28.23Q16.47 28.16 16.57 28.1Q18.79 26.68 20.14 23.39L18.96 22.82Q18.59 23.85 18 24.73Q17.55 25.39 17 25.94Q16.82 26.12 16.62 26.29Q15.84 26.95 14.78 27.35Q13.71 27.75 12.45 27.75Q11.08 27.75 9.92 27.25Q9.65 27.14 9.39 27Q9.19 26.89 9 26.76Q7.88 26.05 7.03 24.92Q6.03 23.57 5.49 21.8Q4.95 20.03 4.95 17.9Q4.95 15.5 5.46 13.54Q5.98 11.59 6.89 10.32Q7.79 9.08 9.01 8.41Q9.07 8.37 9.14 8.34Q9.61 8.1 10.1 7.95Q10.99 7.67 11.96 7.67Q13.13 7.67 14.06 8.13Q14.2 8.19 14.32 8.27Q14.37 8.29 14.41 8.32Q15.39 8.92 16.1 9.93Q16.78 10.87 17.28 12.22Q17.78 13.57 18.03 14.73L19.31 14.73L19.17 6.82L17.92 6.82L17.28 7.89Q16.39 7.35 15.44 6.98Q15.1 6.85 14.75 6.75Q13.42 6.34 11.78 6.34Q10.13 6.34 8.63 6.81Q8.12 6.97 7.64 7.18Q6.6 7.63 5.71 8.28Q4.94 8.85 4.28 9.57Q2.84 11.14 2.03 13.3Q1.21 15.46 1.21 18.12Q1.21 20.78 2.04 22.89Q2.87 25.01 4.26 26.48Q5.19 27.45 6.31 28.13Q6.88 28.47 7.49 28.73Q8.38 29.11 9.31 29.31ZM100.35 29L109.55 29L109.55 27.89Q109.16 27.87 108.48 27.73Q107.8 27.59 107.53 27.45Q107 27.17 106.82 26.79Q106.64 26.42 106.64 25.87L106.64 9.89Q106.64 9.37 106.82 8.93Q106.87 8.82 106.93 8.73Q107.13 8.45 107.53 8.31Q107.85 8.2 108.48 8.07Q109.11 7.95 109.55 7.93L109.55 6.82L100.35 6.82L100.35 7.93Q100.78 7.96 101.38 8.12Q101.99 8.28 102.41 8.48Q102.85 8.69 103.06 9.03Q103.09 9.08 103.11 9.13Q103.13 9.18 103.16 9.23Q103.31 9.6 103.31 10.04L103.31 16.76L92.89 16.76L92.89 9.89Q92.89 9.37 93.07 8.93Q93.12 8.82 93.18 8.73Q93.38 8.45 93.78 8.31Q94.1 8.2 94.73 8.07Q95.36 7.95 95.8 7.93L95.8 6.82L86.6 6.82L86.6 7.93Q87.03 7.96 87.63 8.12Q88.24 8.28 88.66 8.48Q89.1 8.69 89.31 9.03Q89.34 9.08 89.36 9.13Q89.38 9.18 89.41 9.23Q89.56 9.6 89.56 10.04L89.56 26.04Q89.56 26.65 89.35 27.03Q89.3 27.11 89.25 27.18Q89.03 27.45 88.66 27.6Q88.39 27.73 87.68 27.79Q86.97 27.85 86.6 27.89L86.6 29L95.8 29L95.8 27.89Q95.41 27.87 94.73 27.73Q94.05 27.59 93.78 27.45Q93.25 27.17 93.07 26.79Q92.89 26.42 92.89 25.87L92.89 18.15L103.31 18.15L103.31 26.04Q103.31 26.65 103.1 27.03Q103.05 27.11 103 27.18Q102.78 27.45 102.41 27.6Q102.14 27.73 101.43 27.79Q100.72 27.85 100.35 27.89L100.35 29ZM164.69 22.45Q164.36 21.9 163.86 21.45Q163.26 20.92 162.35 20.48Q161.43 20.04 160.4 19.71Q159.36 19.37 158.64 19.1Q157.93 18.82 157.46 18.51Q157.03 18.21 156.78 17.8Q156.76 17.76 156.74 17.71Q156.5 17.25 156.5 16.54Q156.5 16.18 156.61 15.87Q156.78 15.38 157.23 15Q157.24 14.99 157.25 14.98Q157.98 14.35 159.25 14.35Q160.14 14.35 160.87 14.69Q161.43 14.95 161.89 15.39Q162.1 15.59 162.28 15.81Q163.04 16.75 163.31 18.09L164.39 18.09L164.15 13.14L163.03 13.14L162.67 13.95Q162.07 13.62 161.13 13.39Q160.18 13.15 159.28 13.15Q157.26 13.15 155.94 14.11Q155.72 14.27 155.51 14.46Q154.77 15.16 154.42 16.01Q154.11 16.77 154.11 17.67Q154.11 18.75 154.54 19.54Q154.86 20.11 155.3 20.56Q155.47 20.73 155.67 20.89Q156.31 21.4 157.21 21.78Q158.11 22.17 158.84 22.39Q159.76 22.67 160.51 22.96Q161.26 23.25 161.78 23.6Q162.28 23.96 162.53 24.44Q162.79 24.92 162.79 25.57Q162.79 26.51 162.35 27.12Q162.19 27.34 161.98 27.52Q161.17 28.2 159.67 28.2Q158.77 28.2 158.02 27.86Q157.88 27.8 157.75 27.73Q156.92 27.27 156.33 26.61Q156.31 26.59 156.29 26.57Q155.71 25.92 155.31 25.1Q154.9 24.29 154.78 23.68L153.7 23.68L153.86 29.04L155.03 29.04L155.34 28.03Q155.82 28.43 156.96 28.92Q158.09 29.4 159.43 29.4Q161.67 29.4 163.18 28.35Q163.39 28.21 163.58 28.04Q164.34 27.4 164.74 26.58Q165.18 25.67 165.18 24.54Q165.18 23.48 164.84 22.75Q164.77 22.59 164.69 22.45ZM38.55 22.2Q38.6 21.67 38.6 21.14Q38.6 18.22 37.24 16.23Q36.91 15.76 36.5 15.33Q35.68 14.47 34.68 13.95Q33.13 13.15 31.17 13.15Q29 13.15 27.36 14.08Q26.42 14.61 25.66 15.45Q25.18 15.97 24.81 16.57Q23.56 18.57 23.56 21.35Q23.56 23.23 24.16 24.74Q24.76 26.25 25.77 27.29Q26.47 28.01 27.3 28.49Q27.7 28.73 28.13 28.91Q28.62 29.11 29.13 29.24Q30 29.46 30.93 29.46Q32.7 29.46 34.12 28.85Q34.38 28.74 34.64 28.61Q35.74 28.01 36.62 27Q37.57 25.9 38.09 24.33Q38.43 23.28 38.55 22.2ZM129.15 22.2Q129.2 21.67 129.2 21.14Q129.2 18.22 127.84 16.23Q127.51 15.76 127.1 15.33Q126.28 14.47 125.28 13.95Q123.73 13.15 121.77 13.15Q119.6 13.15 117.96 14.08Q117.02 14.61 116.26 15.45Q115.78 15.97 115.41 16.57Q114.16 18.57 114.16 21.35Q114.16 23.23 114.76 24.74Q115.36 26.25 116.37 27.29Q117.07 28.01 117.9 28.49Q118.3 28.73 118.73 28.91Q119.22 29.11 119.73 29.24Q120.6 29.46 121.53 29.46Q123.3 29.46 124.72 28.85Q124.98 28.74 125.24 28.61Q126.34 28.01 127.22 27Q128.17 25.9 128.69 24.33Q129.03 23.28 129.15 22.2ZM181.29 27.72Q182.39 26.76 183.12 25.37L182.03 24.7Q181.09 26.39 180.08 27.03Q180.02 27.07 179.96 27.11Q178.99 27.68 177.68 27.68Q176.32 27.68 175.34 27.16Q174.76 26.85 174.31 26.41Q174 26.1 173.74 25.73Q173.12 24.79 172.83 23.56Q172.54 22.32 172.54 20.81L182.74 20.81L182.74 19.78Q182.74 18.39 182.39 17.2Q182.04 16.01 181.32 15.14Q181.28 15.08 181.24 15.03Q180.5 14.18 179.37 13.68Q178.17 13.15 176.48 13.15Q174.95 13.15 173.7 13.74Q173.61 13.78 173.52 13.83Q172.53 14.34 171.79 15.08Q171.53 15.34 171.31 15.62Q171.06 15.93 170.84 16.27Q170.26 17.17 169.91 18.22Q169.6 19.15 169.49 20.1Q169.43 20.63 169.43 21.17Q169.43 22.84 169.88 24.34Q170.32 25.84 171.23 26.96Q171.39 27.16 171.56 27.35Q172.38 28.2 173.53 28.75Q174.93 29.4 176.79 29.4Q178.3 29.4 179.56 28.84Q180.06 28.62 180.53 28.31Q180.93 28.04 181.29 27.72ZM144.86 29.06L149.87 28.71L149.87 27.7Q149.4 27.68 149.01 27.63Q148.62 27.57 148.34 27.4Q147.98 27.16 147.77 26.82Q147.75 26.79 147.73 26.76Q147.51 26.39 147.51 25.85L147.51 13.62L147.28 13.4L141.69 13.78L141.69 14.79Q142.37 14.82 142.93 14.86Q143.48 14.9 143.76 15.09Q144.07 15.31 144.27 15.61Q144.33 15.68 144.37 15.77Q144.38 15.78 144.38 15.78Q144.59 16.18 144.59 16.68L144.59 25.42Q144.42 25.73 144.1 26.1Q143.78 26.46 143.36 26.79Q142.9 27.15 142.23 27.42Q141.56 27.68 140.7 27.68Q140.29 27.68 139.93 27.56Q139.36 27.35 138.9 26.84Q138.15 26 138.15 24.32L138.15 13.62L137.92 13.4L132.78 13.78L132.78 14.79Q133.25 14.82 133.67 14.91Q134.09 15 134.37 15.18Q134.78 15.46 134.99 15.85Q135.2 16.23 135.2 16.79L135.2 24.17Q135.2 26.71 136.27 28.05Q136.56 28.41 136.92 28.67Q137.89 29.39 139.39 29.39Q140.59 29.39 141.25 29.17Q141.9 28.95 142.61 28.53Q143.22 28.17 143.69 27.72Q144.15 27.28 144.53 26.89L144.62 26.89L144.62 28.84L144.86 29.06ZM42.49 29L54.96 29L54.96 23.56L54.02 23.56Q53.84 24.31 53.59 25.1Q53.35 25.9 53.18 26.35Q53.03 26.78 52.77 27.13Q52.73 27.19 52.69 27.25Q52.62 27.32 52.55 27.38Q52.25 27.64 51.74 27.67Q50.68 27.73 50 27.75Q49.32 27.76 48.69 27.76Q47.91 27.76 47.24 27.75Q46.57 27.75 46.01 27.73L54.87 14.23L54.87 13.59L43.09 13.59L43.09 18.32L44.04 18.32Q44.32 17.01 44.7 16.2Q45.09 15.39 45.52 15.21Q46.16 14.95 46.93 14.9Q47.69 14.85 49.05 14.85L51.21 14.85L42.49 28.17L42.49 29ZM58.01 32.92Q57.71 33.37 57.71 34.03Q57.71 34.21 57.75 34.39Q57.88 34.92 58.4 35.35Q59.1 35.93 60.32 35.93Q60.61 35.93 60.89 35.88Q61.21 35.83 61.53 35.71Q62.11 35.48 62.83 34.82Q63.57 34.12 64.34 32.89Q65.11 31.67 66.1 29.48Q66.85 27.81 68.29 24.26Q69.74 20.71 71.6 16.4Q71.82 15.9 72.18 15.54Q72.43 15.29 72.74 15.1Q73.51 14.64 73.97 14.56L73.97 13.59L68.26 13.59L68.26 14.59Q68.9 14.67 69.61 15.02Q70.29 15.35 70.32 15.74Q70.32 15.76 70.32 15.78Q70.32 16.15 70.11 16.67Q69.91 17.2 69.8 17.5Q68.86 19.93 68.11 21.72Q67.35 23.51 66.65 25.18Q65.97 23.43 64.76 20.52Q63.54 17.6 62.94 16.06Q62.85 15.82 62.78 15.6Q62.71 15.39 62.71 15.29Q62.71 15.28 62.71 15.28Q62.73 15.05 63.36 14.88Q64.02 14.7 64.49 14.68L64.49 13.59L57.46 13.59L57.46 14.62Q58.16 14.73 58.86 15.13Q59.28 15.36 59.55 15.71Q59.74 15.95 59.86 16.25Q61.18 19.37 62.38 22.29Q63.58 25.21 65.07 28.92Q64.58 30.26 63.5 32.04Q62.41 33.82 61.63 34.25Q61.47 33.98 61.21 33.57Q60.94 33.17 60.71 32.93Q60.54 32.76 60.35 32.62Q60.22 32.53 60.07 32.45Q59.71 32.26 59.21 32.26Q58.91 32.26 58.65 32.37Q58.37 32.49 58.14 32.75Q58.07 32.83 58.01 32.92ZM179.52 17.62Q179.67 18.62 179.67 19.5L172.54 19.5Q172.63 17.06 173.72 15.69Q174.35 14.89 175.17 14.56Q175.76 14.32 176.45 14.32Q177.43 14.32 178.06 14.78Q178.26 14.92 178.43 15.1Q178.8 15.46 179.04 15.95Q179.37 16.62 179.52 17.62ZM35.13 18.69Q35.37 20 35.37 21.17Q35.37 24.5 34.23 26.39Q33.51 27.57 32.48 28.01Q31.87 28.28 31.13 28.28Q29.99 28.28 29.2 27.75Q29.17 27.73 29.14 27.71Q28.34 27.14 27.81 26.14Q27.27 25.14 27.03 23.86Q26.79 22.59 26.79 21.09Q26.79 19.95 26.99 18.73Q27.2 17.51 27.7 16.56Q28.2 15.57 29 14.99Q29.04 14.96 29.08 14.93Q29.17 14.87 29.27 14.81Q30.07 14.34 31.13 14.34Q32.18 14.34 32.94 14.8Q33.03 14.86 33.12 14.92Q33.22 15 33.31 15.07Q33.99 15.63 34.43 16.48Q34.9 17.39 35.13 18.69ZM125.73 18.69Q125.97 20 125.97 21.17Q125.97 24.5 124.83 26.39Q124.11 27.57 123.08 28.01Q122.47 28.28 121.73 28.28Q120.59 28.28 119.8 27.75Q119.77 27.73 119.74 27.71Q118.94 27.14 118.41 26.14Q117.87 25.14 117.63 23.86Q117.39 22.59 117.39 21.09Q117.39 19.95 117.59 18.73Q117.8 17.51 118.3 16.56Q118.8 15.57 119.6 14.99Q119.64 14.96 119.68 14.93Q119.77 14.87 119.87 14.81Q120.67 14.34 121.73 14.34Q122.78 14.34 123.54 14.8Q123.63 14.86 123.72 14.92Q123.82 15 123.91 15.07Q124.59 15.63 125.03 16.48Q125.5 17.39 125.73 18.69Z" fill="#F1CDB3" fill-opacity="1.000000" fill-rule="evenodd"/>
</svg>
