<svg width="60.000000" height="52.434326" viewBox="0 0 60 52.4343" fill="none" xmlns="http://www.w3.org/2000/svg" xmlns:xlink="http://www.w3.org/1999/xlink">
	<desc>
			Created with Pixso.
	</desc>
	<defs/>
	<path id="collars-or-leashes" d="M50.76 2.93C53.53 3.88 55.73 4.99 57.29 6.25C59.09 7.69 59.99 9.28 60 10.98L60 24.09C60 25.79 59.09 27.38 57.29 28.83C55.73 30.08 53.53 31.2 50.76 32.14C45.47 33.94 38.55 34.97 31.17 35.07L31.17 39.77L35.21 39.77C35.66 37.41 37.74 35.61 40.23 35.61C43.05 35.61 45.35 37.9 45.35 40.72C45.35 41.93 44.92 43.1 44.14 44.02C44.91 44.93 45.35 46.09 45.35 47.32C45.35 50.14 43.05 52.43 40.23 52.43C37.74 52.43 35.66 50.63 35.21 48.27L24.78 48.27C24.33 50.63 22.25 52.43 19.76 52.43C16.94 52.43 14.64 50.14 14.64 47.32C14.64 46.11 15.07 44.94 15.85 44.02C15.08 43.11 14.64 41.95 14.64 40.72C14.64 37.9 16.94 35.61 19.76 35.61C22.25 35.61 24.33 37.4 24.78 39.77L28.82 39.77L28.82 35.07C21.44 34.97 14.52 33.94 9.23 32.14C6.46 31.2 4.26 30.08 2.7 28.83C0.9 27.38 0 25.79 0 24.09L0 10.98C0 9.28 0.9 7.69 2.7 6.25C4.26 4.99 6.46 3.88 9.23 2.93C14.8 1.04 22.17 0 29.99 0C37.82 0 45.19 1.04 50.76 2.93ZM57.62 11.35C57.63 11.29 57.64 11.22 57.64 11.15C57.65 11.09 57.65 11.04 57.65 10.98C57.65 6.89 46.29 2.34 29.99 2.34C13.7 2.34 2.34 6.89 2.34 10.98C2.34 11.04 2.34 11.09 2.35 11.15C2.35 11.22 2.36 11.29 2.37 11.35L2.37 11.36C2.38 11.42 2.39 11.48 2.41 11.54C2.42 11.6 2.44 11.67 2.46 11.73C2.47 11.74 2.47 11.75 2.47 11.76C2.49 11.81 2.51 11.86 2.53 11.91C2.54 11.93 2.55 11.96 2.56 11.98C2.57 12.01 2.59 12.04 2.6 12.06C2.63 12.12 2.66 12.18 2.69 12.23L2.69 12.25C3.18 13.13 4.1 13.9 5.02 14.5C6.23 13.8 8.18 12.91 11.16 12.07C16.41 10.6 23.1 9.79 29.99 9.79C36.89 9.79 43.58 10.6 48.83 12.07C51.81 12.91 53.76 13.8 54.97 14.5C55.89 13.9 56.81 13.13 57.3 12.25L57.3 12.23C57.33 12.18 57.36 12.12 57.39 12.06C57.4 12.04 57.42 12.01 57.43 11.98C57.46 11.91 57.49 11.83 57.52 11.76L57.53 11.73C57.54 11.68 57.56 11.63 57.57 11.58C57.59 11.51 57.6 11.44 57.62 11.36L57.62 11.35ZM43.48 5.86C39.44 5.1 34.84 4.69 30.19 4.69C23.74 4.69 17.51 5.46 12.65 6.85C12.02 7.03 11.66 7.67 11.84 8.3C11.99 8.81 12.46 9.15 12.97 9.15C13.07 9.15 13.18 9.13 13.29 9.1C17.95 7.77 23.96 7.04 30.19 7.04C34.7 7.04 39.15 7.43 43.04 8.16C43.68 8.28 44.29 7.86 44.41 7.22C44.53 6.59 44.11 5.98 43.48 5.86ZM47.85 7.04C48.01 7.2 48.13 7.41 48.17 7.64C48.19 7.71 48.2 7.79 48.2 7.87C48.2 7.94 48.19 8.02 48.17 8.1C48.14 8.25 48.08 8.39 48 8.52C47.95 8.58 47.91 8.64 47.85 8.7C47.8 8.75 47.74 8.8 47.67 8.84C47.61 8.88 47.54 8.92 47.47 8.95C47.4 8.98 47.33 9 47.25 9.02C47.18 9.03 47.1 9.04 47.02 9.04C46.95 9.04 46.87 9.03 46.79 9.02C46.72 9 46.65 8.98 46.57 8.95C46.5 8.92 46.44 8.88 46.37 8.84C46.31 8.8 46.25 8.75 46.19 8.7C46.14 8.64 46.09 8.58 46.05 8.52C45.96 8.39 45.9 8.25 45.87 8.1C45.86 8.02 45.85 7.94 45.85 7.87C45.85 7.79 45.86 7.71 45.87 7.64C45.9 7.49 45.96 7.34 46.05 7.22C46.09 7.15 46.14 7.09 46.19 7.04C46.25 6.98 46.31 6.94 46.37 6.89C46.44 6.85 46.5 6.81 46.57 6.79C46.65 6.76 46.72 6.73 46.79 6.72C46.94 6.69 47.1 6.69 47.25 6.72C47.4 6.75 47.55 6.81 47.67 6.89C47.74 6.94 47.8 6.98 47.85 7.04ZM11.8 14.33C9.94 14.85 8.55 15.38 7.52 15.85C12.37 18.01 20.31 19.62 29.99 19.62C39.68 19.62 47.62 18.01 52.47 15.85C51.44 15.38 50.05 14.85 48.19 14.33C43.15 12.91 36.69 12.13 29.99 12.13C23.3 12.13 16.84 12.91 11.8 14.33ZM34.39 32.62C48.3 31.89 57.65 27.8 57.65 24.09L57.65 15.41L57.64 15.42C57.52 15.52 57.41 15.62 57.29 15.71C57.14 15.84 56.98 15.96 56.81 16.07L56.81 16.08C56.72 16.14 56.63 16.2 56.54 16.27L56.5 16.29C56.42 16.35 56.33 16.41 56.24 16.47L56.19 16.5C56.1 16.56 56.01 16.62 55.92 16.68L55.88 16.7C54.49 17.56 52.78 18.34 50.76 19.03C45.19 20.92 37.82 21.96 29.99 21.96C22.17 21.96 14.8 20.92 9.23 19.03C7.21 18.34 5.5 17.56 4.11 16.7L4.07 16.68C3.98 16.62 3.89 16.56 3.8 16.5C3.78 16.49 3.76 16.48 3.75 16.47C3.66 16.41 3.57 16.35 3.49 16.29L3.45 16.27C3.36 16.2 3.27 16.14 3.18 16.08L3.18 16.07C3.01 15.96 2.85 15.84 2.7 15.71C2.58 15.62 2.47 15.52 2.35 15.42L2.34 15.41L2.34 24.09C2.34 27.8 11.69 31.89 25.6 32.62C25.09 31.81 24.83 30.87 24.83 29.91C24.83 29.56 24.86 29.2 24.94 28.86C21.97 28.68 19.14 28.34 16.51 27.84C15.88 27.72 15.46 27.11 15.58 26.48C15.7 25.84 16.31 25.42 16.95 25.54C19.77 26.07 22.83 26.42 26.06 26.57C27.01 25.45 28.42 24.74 29.99 24.74C31.56 24.74 32.97 25.45 33.92 26.55C38.67 26.3 43.08 25.63 46.7 24.6C47.32 24.42 47.97 24.78 48.15 25.4C48.33 26.03 47.97 26.67 47.34 26.85C43.82 27.86 39.6 28.54 35.05 28.83C35.12 29.18 35.16 29.54 35.16 29.91C35.16 30.87 34.9 31.81 34.39 32.62ZM14.05 25.38C14.08 25.46 14.1 25.53 14.12 25.6C14.13 25.68 14.14 25.76 14.14 25.83C14.14 25.99 14.11 26.14 14.05 26.28C13.99 26.42 13.9 26.55 13.79 26.66C13.74 26.72 13.68 26.76 13.62 26.81C13.55 26.85 13.49 26.89 13.42 26.91C13.34 26.94 13.27 26.97 13.2 26.98C13.12 27 13.04 27 12.97 27C12.89 27 12.81 27 12.74 26.98C12.66 26.97 12.59 26.94 12.52 26.91C12.45 26.89 12.38 26.85 12.32 26.81C12.25 26.76 12.19 26.72 12.14 26.66C12.08 26.61 12.03 26.55 11.99 26.48C11.95 26.42 11.91 26.35 11.88 26.28C11.83 26.14 11.8 25.99 11.79 25.83C11.79 25.76 11.8 25.68 11.82 25.6C11.83 25.53 11.86 25.46 11.88 25.38C11.91 25.31 11.95 25.25 11.99 25.18C12.03 25.12 12.08 25.06 12.14 25C12.19 24.95 12.25 24.9 12.32 24.86C12.38 24.82 12.45 24.78 12.52 24.75C12.59 24.72 12.66 24.7 12.74 24.68C12.89 24.65 13.04 24.65 13.2 24.68C13.27 24.7 13.34 24.72 13.42 24.75C13.49 24.78 13.55 24.82 13.62 24.86C13.68 24.9 13.74 24.95 13.79 25C13.85 25.06 13.9 25.12 13.94 25.18C13.98 25.25 14.02 25.31 14.05 25.38ZM27.17 29.91C27.17 31.47 28.44 32.73 29.99 32.73C31.55 32.73 32.82 31.47 32.82 29.91C32.82 28.35 31.55 27.09 29.99 27.09C28.44 27.09 27.17 28.35 27.17 29.91ZM36.76 42.02C36.61 42.08 36.46 42.11 36.3 42.11L23.69 42.11C23.53 42.11 23.38 42.08 23.23 42.02C23.08 41.96 22.95 41.86 22.84 41.75C22.73 41.63 22.65 41.5 22.59 41.35C22.54 41.2 22.51 41.04 22.52 40.88C22.53 40.83 22.53 40.78 22.53 40.72C22.53 39.2 21.28 37.95 19.76 37.95C18.23 37.95 16.99 39.2 16.99 40.72C16.99 41.66 17.46 42.53 18.24 43.04C18.4 43.15 18.54 43.29 18.63 43.46C18.72 43.63 18.77 43.83 18.77 44.02C18.77 44.21 18.72 44.41 18.63 44.58C18.54 44.75 18.4 44.89 18.24 45C17.46 45.51 16.99 46.38 16.99 47.32C16.99 48.84 18.23 50.09 19.76 50.09C21.28 50.09 22.53 48.84 22.53 47.32C22.53 47.26 22.53 47.21 22.52 47.16C22.51 47 22.54 46.84 22.59 46.69C22.65 46.54 22.73 46.41 22.84 46.29C22.95 46.18 23.08 46.08 23.23 46.02C23.38 45.96 23.53 45.93 23.69 45.93L36.3 45.93C36.46 45.93 36.61 45.96 36.76 46.02C36.91 46.08 37.04 46.18 37.15 46.29C37.26 46.41 37.34 46.54 37.4 46.69C37.45 46.84 37.48 47 37.47 47.16C37.46 47.21 37.46 47.26 37.46 47.32C37.46 48.84 38.71 50.09 40.23 50.09C41.76 50.09 43 48.84 43 47.32C43 46.38 42.53 45.51 41.75 45C41.59 44.89 41.45 44.75 41.36 44.58C41.27 44.41 41.22 44.21 41.22 44.02C41.22 43.83 41.27 43.63 41.36 43.46C41.45 43.29 41.59 43.15 41.75 43.04C42.53 42.53 43 41.66 43 40.72C43 39.2 41.76 37.95 40.23 37.95C38.71 37.95 37.46 39.2 37.46 40.72C37.46 40.78 37.46 40.83 37.47 40.88C37.48 41.04 37.45 41.2 37.4 41.35C37.34 41.5 37.26 41.63 37.15 41.75C37.04 41.86 36.91 41.96 36.76 42.02Z" fill="#F1CDB3" fill-opacity="1.000000" fill-rule="evenodd"/>
</svg>
