<svg width="56.288208" height="59.999756" viewBox="0 0 56.2882 59.9998" fill="none" xmlns="http://www.w3.org/2000/svg" xmlns:xlink="http://www.w3.org/1999/xlink">
	<desc>
			Created with Pixso.
	</desc>
	<defs/>
	<path id="sleeping-area" d="M28.83 0.22L55.8 19.96C56.12 20.19 56.28 20.55 56.28 20.91C56.28 21.15 56.21 21.39 56.06 21.6L52.53 26.42C52.44 26.54 52.33 26.65 52.19 26.73C52.06 26.81 51.92 26.86 51.77 26.88C51.61 26.91 51.46 26.9 51.31 26.86C51.16 26.83 51.02 26.76 50.89 26.67L49.89 25.94L49.89 58.82C49.89 59.47 49.37 59.99 48.72 59.99L7.62 59.99C6.97 59.99 6.45 59.47 6.45 58.82L6.45 25.89L5.38 26.67C5.26 26.76 5.12 26.83 4.97 26.86C4.82 26.9 4.67 26.91 4.51 26.88C4.36 26.86 4.21 26.81 4.08 26.73C3.95 26.65 3.84 26.54 3.75 26.42L0.22 21.6C0.07 21.39 0 21.15 0 20.91C0 20.55 0.16 20.19 0.47 19.96L27.45 0.22C27.65 0.07 27.89 0 28.14 0C28.39 0 28.63 0.07 28.83 0.22ZM28.83 7.62L51.33 24.09L53.47 21.16L28.14 2.62L2.8 21.16L4.95 24.09L27.45 7.62C27.65 7.47 27.89 7.39 28.14 7.39C28.39 7.39 28.63 7.47 28.83 7.62ZM19.82 53.08L47.55 53.08L47.55 24.22L28.14 10.02L10.73 22.76L36.24 22.76C36.88 22.76 37.41 23.28 37.41 23.93C37.41 24.58 36.88 25.1 36.24 25.1L8.79 25.1L8.79 57.65L47.55 57.65L47.55 55.42L19.82 55.42C19.18 55.42 18.65 54.9 18.65 54.25C18.65 53.61 19.18 53.08 19.82 53.08ZM41.54 23.48C41.57 23.55 41.59 23.62 41.61 23.7C41.62 23.77 41.63 23.85 41.63 23.93C41.63 24 41.62 24.08 41.61 24.16C41.59 24.23 41.57 24.31 41.54 24.38C41.51 24.45 41.47 24.52 41.43 24.58C41.39 24.64 41.34 24.7 41.29 24.76C41.23 24.81 41.17 24.86 41.11 24.9C41.04 24.94 40.98 24.98 40.9 25.01C40.83 25.04 40.76 25.06 40.69 25.08C40.61 25.09 40.53 25.1 40.46 25.1C40.38 25.1 40.3 25.09 40.23 25.08C40.15 25.06 40.08 25.04 40.01 25.01C39.94 24.98 39.87 24.94 39.81 24.9C39.74 24.86 39.68 24.81 39.63 24.76C39.57 24.7 39.53 24.64 39.48 24.58C39.44 24.52 39.4 24.45 39.38 24.38C39.35 24.31 39.32 24.23 39.31 24.16C39.29 24.08 39.29 24 39.29 23.93C39.29 23.85 39.29 23.77 39.31 23.7C39.32 23.62 39.35 23.55 39.38 23.48C39.4 23.41 39.44 23.34 39.48 23.28C39.53 23.21 39.57 23.15 39.63 23.1C39.85 22.88 40.15 22.76 40.46 22.76C40.77 22.76 41.06 22.88 41.29 23.1C41.34 23.15 41.39 23.21 41.43 23.28C41.47 23.34 41.51 23.41 41.54 23.48ZM41.6 27.94C42.31 28.64 42.7 29.58 42.7 30.57C42.7 30.64 42.69 30.7 42.69 30.77C42.57 33.09 42.25 35.38 41.73 37.64C41.89 38.04 42.02 38.44 42.14 38.86C42.29 39.4 42.4 39.96 42.48 40.52C42.54 40.94 42.57 41.36 42.57 41.78C42.57 43.96 41.78 46.04 40.28 47.76C38.34 50 35.45 51.28 32.37 51.28L23.91 51.28C18.28 51.28 13.71 47.01 13.71 41.77C13.71 41.35 13.74 40.93 13.8 40.52C13.93 39.54 14.19 38.57 14.55 37.64C14.31 36.57 14.11 35.5 13.95 34.41C13.77 33.2 13.65 31.99 13.59 30.77C13.58 30.7 13.58 30.63 13.58 30.57C13.58 29.46 14.07 28.42 14.94 27.71C15.86 26.96 17.05 26.69 18.2 26.99C18.21 26.99 18.22 26.99 18.23 27C20.4 27.55 22.52 28.29 24.57 29.19C25.08 29.07 25.59 28.98 26.11 28.91C26.78 28.82 27.46 28.78 28.14 28.78C29.34 28.78 30.54 28.91 31.71 29.19C33.76 28.29 35.88 27.55 38.05 26.99C38.35 26.92 38.65 26.87 38.96 26.87C39.94 26.86 40.9 27.25 41.6 27.94ZM40.35 30.65L40.35 30.64C40.35 30.62 40.35 30.6 40.35 30.58L40.35 30.57L40.35 30.57C40.35 30.39 40.32 30.21 40.25 30.05C40.18 29.88 40.08 29.74 39.95 29.61C39.7 29.36 39.35 29.21 39 29.21L38.98 29.21C38.88 29.22 38.78 29.23 38.68 29.25C36.49 29.81 34.36 30.56 32.3 31.49C32.06 31.61 31.78 31.63 31.52 31.56C30.42 31.27 29.29 31.12 28.14 31.12C27.56 31.12 26.98 31.16 26.41 31.23C25.86 31.31 25.3 31.41 24.76 31.56C24.5 31.63 24.22 31.61 23.97 31.49C21.93 30.56 19.8 29.81 17.62 29.26L17.6 29.25C17.49 29.23 17.39 29.21 17.28 29.21C16.97 29.21 16.67 29.32 16.42 29.52C16.1 29.79 15.93 30.16 15.93 30.57C15.93 30.6 15.93 30.62 15.93 30.65C15.99 31.79 16.1 32.94 16.27 34.08C16.43 35.22 16.65 36.35 16.91 37.46C16.94 37.55 16.95 37.65 16.95 37.74C16.95 37.89 16.92 38.05 16.85 38.2C16.49 39.04 16.24 39.93 16.12 40.84C16.07 41.15 16.05 41.46 16.05 41.77C16.05 45.72 19.58 48.94 23.91 48.94L32.37 48.94C34.77 48.94 37.01 47.95 38.51 46.22C39.63 44.94 40.22 43.38 40.22 41.77C40.22 41.46 40.2 41.15 40.16 40.84C40.1 40.39 40 39.93 39.88 39.49C39.75 39.05 39.6 38.61 39.42 38.19C39.36 38.05 39.33 37.89 39.33 37.74C39.33 37.65 39.34 37.55 39.36 37.46C39.9 35.23 40.23 32.94 40.35 30.65ZM34.95 37.36L36.69 38.16C37.12 38.36 37.38 38.78 37.38 39.23C37.38 39.39 37.34 39.56 37.27 39.71C37.07 40.14 36.65 40.4 36.2 40.4C36.04 40.4 35.87 40.36 35.72 40.29L34.46 39.72L33.21 40.29C32.62 40.56 31.93 40.3 31.66 39.71C31.59 39.56 31.55 39.39 31.55 39.23C31.55 38.78 31.81 38.36 32.24 38.16L33.98 37.36C34.13 37.29 34.3 37.26 34.46 37.26C34.63 37.26 34.8 37.29 34.95 37.36ZM22.3 37.36L24.04 38.16C24.47 38.36 24.73 38.78 24.73 39.23C24.73 39.39 24.69 39.56 24.62 39.71C24.35 40.3 23.65 40.56 23.07 40.29L21.81 39.72L20.56 40.29C20.42 40.36 20.27 40.39 20.12 40.4C19.96 40.4 19.81 40.38 19.66 40.33C19.52 40.27 19.39 40.19 19.28 40.09C19.16 39.98 19.07 39.85 19.01 39.71C18.94 39.56 18.9 39.39 18.9 39.23C18.9 38.78 19.15 38.36 19.59 38.16L21.33 37.36C21.48 37.29 21.65 37.26 21.81 37.26C21.98 37.26 22.15 37.29 22.3 37.36ZM29.31 42.54C29.31 43.1 29.77 43.56 30.34 43.56C30.98 43.56 31.51 44.09 31.51 44.73C31.51 45.38 30.98 45.9 30.34 45.9C29.54 45.91 28.77 45.62 28.16 45.11C27.57 45.63 26.79 45.95 25.94 45.95C25.29 45.95 24.77 45.42 24.77 44.78C24.77 44.13 25.29 43.6 25.94 43.6C26.51 43.6 26.97 43.14 26.97 42.58L26.97 42.54C26.97 41.89 27.49 41.36 28.14 41.36C28.79 41.36 29.31 41.89 29.31 42.54ZM16.68 53.8C16.71 53.87 16.73 53.95 16.75 54.02C16.76 54.1 16.77 54.18 16.77 54.25C16.77 54.48 16.7 54.71 16.57 54.9C16.53 54.97 16.48 55.03 16.43 55.08C16.38 55.14 16.32 55.18 16.25 55.23C16.06 55.35 15.83 55.42 15.6 55.42C15.52 55.42 15.45 55.42 15.37 55.4C15.3 55.39 15.22 55.36 15.15 55.33C15.08 55.31 15.01 55.27 14.95 55.23C14.89 55.18 14.83 55.14 14.77 55.08C14.72 55.03 14.67 54.97 14.63 54.9C14.58 54.84 14.55 54.77 14.52 54.7C14.46 54.56 14.43 54.41 14.43 54.26L14.43 54.25C14.43 54.18 14.44 54.1 14.45 54.02C14.48 53.87 14.54 53.73 14.63 53.6C14.67 53.54 14.72 53.48 14.77 53.42C14.83 53.37 14.89 53.32 14.95 53.28C15.01 53.24 15.08 53.2 15.15 53.17C15.22 53.14 15.3 53.12 15.37 53.1C15.52 53.07 15.68 53.07 15.83 53.1C15.98 53.13 16.12 53.19 16.25 53.28C16.32 53.32 16.38 53.37 16.43 53.42C16.48 53.48 16.53 53.54 16.57 53.6C16.62 53.66 16.65 53.73 16.68 53.8Z" fill="#F1CDB3" fill-opacity="1.000000" fill-rule="evenodd"/>
</svg>
