<svg width="60.000000" height="54.158691" viewBox="0 0 60 54.1587" fill="none" xmlns="http://www.w3.org/2000/svg" xmlns:xlink="http://www.w3.org/1999/xlink">
	<desc>
			Created with Pixso.
	</desc>
	<defs/>
	<path id="vitamins" d="M42.11 30.67C46.7 30.67 51.03 31.28 54.31 32.39C59.01 33.99 60 36.07 60 37.52L60 47.29C60 48.75 59.01 50.83 54.31 52.43C51.03 53.54 46.7 54.15 42.11 54.15C37.52 54.15 33.19 53.54 29.92 52.43C27.14 51.48 25.66 50.37 24.91 49.32C23.88 50.49 22.67 51.49 21.31 52.27C19.17 53.5 16.72 54.15 14.23 54.15C6.38 54.15 0 47.77 0 39.92L0 14.23C0 6.38 6.38 0 14.23 0C22.08 0 28.46 6.38 28.46 14.23L28.46 32.95C28.94 32.75 29.42 32.56 29.92 32.39C32.99 31.35 36.98 30.74 41.25 30.67C41.54 30.67 41.82 30.67 42.11 30.67ZM7.03 25.9L26.12 25.9L26.12 14.23C26.12 7.67 20.78 2.34 14.23 2.34C7.67 2.34 2.34 7.67 2.34 14.23L2.34 25.9L4.68 25.9L4.68 14.23C4.68 8.96 8.96 4.68 14.23 4.68C19.49 4.68 23.77 8.96 23.77 14.23C23.77 14.87 23.25 15.4 22.6 15.4C21.95 15.4 21.43 14.87 21.43 14.23C21.43 10.26 18.2 7.03 14.23 7.03C10.26 7.03 7.03 10.26 7.03 14.23L7.03 25.9ZM24.45 36.33C24.71 35.68 25.21 34.98 26.12 34.29L26.12 28.25L7.03 28.25L7.03 34.57C7.03 35.22 6.5 35.75 5.85 35.75C5.21 35.75 4.68 35.22 4.68 34.57L4.68 28.25L2.34 28.25L2.34 39.92C2.34 46.48 7.67 51.81 14.23 51.81C18.31 51.81 22.02 49.78 24.23 46.36L24.23 37.52C24.23 37.47 24.23 37.42 24.23 37.36L24.23 37.33C24.24 37.23 24.25 37.12 24.27 37.01C24.31 36.78 24.37 36.55 24.45 36.33ZM26.58 37.39C26.57 37.44 26.57 37.48 26.57 37.52L26.57 37.53C26.57 37.9 26.88 38.42 27.63 38.97L52.71 34.35C49.79 33.48 46.06 33.01 42.11 33.01C37.77 33.01 33.71 33.58 30.67 34.61C29.47 35.02 28.58 35.45 27.94 35.87C27.94 35.87 27.93 35.87 27.93 35.88C27.66 36.06 27.42 36.24 27.22 36.42L27.19 36.45C27.16 36.48 27.13 36.5 27.1 36.53C27.06 36.57 27.03 36.61 26.99 36.65L26.99 36.66C26.75 36.93 26.62 37.17 26.58 37.38L26.58 37.39ZM42.11 42.04C46.45 42.04 50.51 41.47 53.55 40.44C56.58 39.41 57.65 38.22 57.65 37.52C57.65 37.14 57.32 36.6 56.52 36.03L31.38 40.66C34.33 41.55 38.1 42.04 42.11 42.04ZM6.5 38.25C6.57 38.29 6.63 38.34 6.68 38.4C6.9 38.61 7.03 38.92 7.03 39.23C7.03 39.3 7.02 39.38 7 39.46C6.99 39.53 6.97 39.6 6.94 39.67C6.91 39.74 6.87 39.81 6.83 39.88C6.79 39.94 6.74 40 6.68 40.06C6.63 40.11 6.57 40.16 6.5 40.2C6.44 40.24 6.37 40.28 6.3 40.31C6.16 40.37 6.01 40.4 5.85 40.4C5.78 40.4 5.7 40.39 5.63 40.38C5.4 40.33 5.19 40.22 5.03 40.06C4.97 40 4.92 39.94 4.88 39.88C4.84 39.81 4.8 39.74 4.77 39.67C4.74 39.6 4.72 39.53 4.71 39.46C4.69 39.38 4.68 39.3 4.68 39.23C4.68 39.15 4.69 39.07 4.71 39C4.72 38.92 4.74 38.85 4.77 38.78C4.8 38.71 4.84 38.64 4.88 38.58C4.92 38.51 4.97 38.45 5.03 38.4C5.08 38.34 5.14 38.29 5.2 38.25C5.27 38.21 5.34 38.17 5.41 38.14C5.48 38.11 5.55 38.09 5.63 38.08C5.78 38.05 5.93 38.05 6.08 38.08C6.16 38.09 6.23 38.11 6.3 38.14C6.37 38.17 6.44 38.21 6.5 38.25ZM53.55 50.21C56.58 49.18 57.65 47.99 57.65 47.29L57.65 41.09C56.83 41.63 55.74 42.17 54.31 42.66C51.03 43.77 46.7 44.38 42.11 44.38C37.52 44.38 33.19 43.77 29.92 42.66C28.48 42.17 27.39 41.63 26.57 41.09L26.57 46.69L26.57 46.69L26.57 47.29C26.57 47.99 27.64 49.18 30.67 50.21C33.71 51.24 37.77 51.81 42.11 51.81C46.45 51.81 50.51 51.24 53.55 50.21Z" fill="#F1CDB3" fill-opacity="1.000000" fill-rule="evenodd"/>
</svg>
