<svg width="40.000000" height="26.000000" viewBox="0 0 40 26" fill="none" xmlns="http://www.w3.org/2000/svg" xmlns:xlink="http://www.w3.org/1999/xlink">
	<desc>
			Created with Pixso.
	</desc>
	<defs/>
	<path id="mail" d="M0.68 0L39.31 0C39.49 0 39.67 0.07 39.79 0.2C39.92 0.33 40 0.51 40 0.69L40 25.3C40 25.48 39.92 25.66 39.79 25.79C39.67 25.92 39.49 26 39.31 26L0.68 26C0.5 26 0.32 25.92 0.2 25.79C0.07 25.66 0 25.48 0 25.3L0 0.69C0 0.51 0.07 0.33 0.2 0.2C0.32 0.07 0.5 0 0.68 0ZM30.4 8.47C30.47 8.54 30.53 8.6 30.59 8.66L37.67 1.39L2.32 1.39L19.99 19.54L22.77 16.69C22.54 16.04 22.69 15.35 22.83 14.73C22.9 14.38 22.97 14.05 22.97 13.78C22.97 13.5 22.9 13.17 22.83 12.83C22.67 12.11 22.5 11.3 22.91 10.57C23.33 9.83 24.12 9.58 24.82 9.36C25.15 9.26 25.45 9.16 25.67 9.03C25.87 8.92 26.1 8.7 26.34 8.47C26.85 7.98 27.49 7.37 28.37 7.37C29.24 7.37 29.89 7.98 30.4 8.47ZM33.83 16.98C33.62 17.36 33.31 17.61 32.96 17.79L38.63 23.61L38.63 2.38L31.85 9.34L31.91 9.36C32.62 9.58 33.41 9.83 33.83 10.57C34.24 11.3 34.07 12.11 33.91 12.83C33.83 13.17 33.76 13.5 33.76 13.78C33.76 14.05 33.83 14.38 33.91 14.73C34.07 15.45 34.24 16.26 33.83 16.98ZM1.36 23.61L11.7 13L1.36 2.38L1.36 23.61ZM32.65 16.28C32.79 16.03 32.68 15.52 32.57 15.03C32.48 14.62 32.39 14.21 32.39 13.78C32.39 13.35 32.48 12.93 32.57 12.53C32.68 12.03 32.79 11.52 32.65 11.27C32.49 11 31.99 10.84 31.51 10.69C31.13 10.57 30.73 10.44 30.38 10.24C30.04 10.04 29.75 9.76 29.46 9.49C29.07 9.12 28.7 8.77 28.37 8.77C28.04 8.77 27.67 9.12 27.27 9.49C26.99 9.76 26.7 10.04 26.36 10.24C26.01 10.44 25.61 10.57 25.23 10.69C24.75 10.84 24.25 11 24.09 11.27C23.95 11.52 24.06 12.03 24.17 12.53L24.17 12.53C24.25 12.93 24.34 13.35 24.34 13.78C24.34 14.21 24.25 14.62 24.17 15.03L24.17 15.03C24.06 15.52 23.95 16.03 24.09 16.28C24.25 16.55 24.75 16.71 25.23 16.86C25.61 16.99 26.01 17.11 26.36 17.32C26.7 17.52 26.99 17.79 27.27 18.07C27.67 18.44 28.04 18.79 28.37 18.79C28.7 18.79 29.07 18.44 29.46 18.07C29.75 17.79 30.04 17.52 30.38 17.32C30.73 17.11 31.13 16.99 31.51 16.86C31.99 16.71 32.49 16.55 32.65 16.28ZM24.88 13.78C24.88 11.83 26.45 10.24 28.37 10.24C30.29 10.24 31.86 11.83 31.86 13.78C31.86 15.73 30.29 17.32 28.37 17.32C26.45 17.32 24.88 15.73 24.88 13.78ZM26.25 13.78C26.25 14.96 27.2 15.93 28.37 15.93C29.54 15.93 30.49 14.96 30.49 13.78C30.49 12.59 29.54 11.63 28.37 11.63C27.2 11.63 26.25 12.59 26.25 13.78ZM19.51 21.02L12.66 13.98L2.32 24.6L37.67 24.6L31.55 18.31C31.36 18.38 31.2 18.44 31.07 18.52C30.86 18.64 30.64 18.85 30.4 19.08C29.89 19.57 29.24 20.18 28.37 20.18C27.49 20.18 26.85 19.57 26.34 19.08C26.1 18.85 25.87 18.64 25.67 18.52C25.45 18.39 25.15 18.29 24.82 18.19C24.44 18.07 24.04 17.94 23.68 17.73L20.48 21.02C20.42 21.08 20.34 21.14 20.26 21.17C20.18 21.21 20.09 21.23 19.99 21.23C19.9 21.23 19.81 21.21 19.73 21.17C19.65 21.14 19.57 21.08 19.51 21.02Z" fill="#F1CDB3" fill-opacity="1.000000" fill-rule="evenodd"/>
</svg>
